<svg width="121" height="36" viewBox="0 0 121 36" fill="none" xmlns="http://www.w3.org/2000/svg">
<path d="M7.34045 9.10113C7.34045 6.33971 9.57903 4.10114 12.3405 4.10114H19.4999C24.4059 4.10114 28.383 8.07824 28.383 12.9842V12.9842H7.34045V9.10113Z" fill="#113A56"/>
<rect x="7.34045" y="7.55566" width="31.3191" height="21.2207" rx="6" fill="#2E5C7C"/>
<path d="M17.149 22.5427H15.5183L19.1824 12.3608H20.9572L24.6213 22.5427H22.9906L20.112 14.2103H20.0325L17.149 22.5427ZM17.4224 18.5554H22.7122V19.8481H17.4224V18.5554ZM26.0407 22.5427V14.9063H27.5272V22.5427H26.0407ZM26.7914 13.728C26.5329 13.728 26.3108 13.6419 26.1252 13.4695C25.9429 13.2938 25.8518 13.085 25.8518 12.8431C25.8518 12.5978 25.9429 12.389 26.1252 12.2167C26.3108 12.041 26.5329 11.9532 26.7914 11.9532C27.0499 11.9532 27.2703 12.041 27.4526 12.2167C27.6382 12.389 27.731 12.5978 27.731 12.8431C27.731 13.085 27.6382 13.2938 27.4526 13.4695C27.2703 13.6419 27.0499 13.728 26.7914 13.728Z" fill="white"/>
<line y1="-1" x2="9.03498" y2="-1" transform="matrix(-0.704119 0.710082 -0.704119 -0.710082 10.7872 24)" stroke="#2E5C7C" stroke-width="2"/>
<circle cx="4" cy="32" r="4" transform="rotate(180 4 32)" fill="#2E5C7C"/>
<circle cx="4" cy="32" r="2" transform="rotate(180 4 32)" fill="white"/>
<line y1="-1" x2="9.03498" y2="-1" transform="matrix(0.704119 0.710082 0.704119 -0.710082 35 24)" stroke="#2E5C7C" stroke-width="2"/>
<circle cx="4" cy="4" r="4" transform="matrix(1 0 0 -1 37.7872 36)" fill="#2E5C7C"/>
<circle cx="2" cy="2" r="2" transform="matrix(1 0 0 -1 39.7872 34)" fill="white"/>
<line y1="-1" x2="9.03498" y2="-1" transform="matrix(0.704119 -0.710082 0.704119 0.710082 35 12)" stroke="#2E5C7C" stroke-width="2"/>
<circle cx="41.7872" cy="4" r="4" fill="#2E5C7C"/>
<circle cx="41.7872" cy="4" r="2" fill="white"/>
<path d="M55.5753 16.1293H54.0241C53.9645 15.7978 53.8535 15.5062 53.6911 15.2543C53.5286 15.0024 53.3298 14.7886 53.0945 14.6129C52.8591 14.4373 52.5956 14.3047 52.304 14.2152C52.0156 14.1257 51.709 14.081 51.3842 14.081C50.7976 14.081 50.2723 14.2285 49.8082 14.5234C49.3475 14.8184 48.983 15.2509 48.7145 15.821C48.4493 16.3911 48.3168 17.0871 48.3168 17.9091C48.3168 18.7377 48.4493 19.437 48.7145 20.0071C48.983 20.5772 49.3492 21.008 49.8132 21.2997C50.2772 21.5914 50.7992 21.7372 51.3793 21.7372C51.7008 21.7372 52.0057 21.6941 52.294 21.608C52.5857 21.5185 52.8492 21.3875 53.0845 21.2152C53.3198 21.0429 53.5187 20.8324 53.6811 20.5838C53.8468 20.3319 53.9612 20.0436 54.0241 19.7188L55.5753 19.7237C55.4924 20.2242 55.3317 20.6849 55.093 21.1058C54.8577 21.5234 54.5545 21.8847 54.1832 22.1896C53.8153 22.4912 53.3944 22.7249 52.9205 22.8906C52.4465 23.0563 51.9295 23.1392 51.3693 23.1392C50.4877 23.1392 49.7022 22.9304 49.0128 22.5128C48.3234 22.0919 47.7798 21.4903 47.3821 20.7081C46.9877 19.9259 46.7905 18.9929 46.7905 17.9091C46.7905 16.822 46.9893 15.889 47.3871 15.1101C47.7848 14.3279 48.3284 13.728 49.0178 13.3104C49.7071 12.8894 50.491 12.679 51.3693 12.679C51.9096 12.679 52.4134 12.7569 52.8807 12.9126C53.3513 13.0651 53.7739 13.2905 54.1484 13.5888C54.523 13.8838 54.8329 14.245 55.0781 14.6726C55.3234 15.0968 55.4891 15.5824 55.5753 16.1293ZM60.5108 23.1541C59.7949 23.1541 59.1702 22.9901 58.6365 22.6619C58.1029 22.3338 57.6886 21.8748 57.3936 21.2848C57.0987 20.6948 56.9512 20.0054 56.9512 19.2166C56.9512 18.4245 57.0987 17.7318 57.3936 17.1385C57.6886 16.5452 58.1029 16.0845 58.6365 15.7564C59.1702 15.4283 59.7949 15.2642 60.5108 15.2642C61.2267 15.2642 61.8515 15.4283 62.3851 15.7564C62.9187 16.0845 63.333 16.5452 63.628 17.1385C63.923 17.7318 64.0705 18.4245 64.0705 19.2166C64.0705 20.0054 63.923 20.6948 63.628 21.2848C63.333 21.8748 62.9187 22.3338 62.3851 22.6619C61.8515 22.9901 61.2267 23.1541 60.5108 23.1541ZM60.5158 21.9062C60.9798 21.9062 61.3643 21.7836 61.6692 21.5384C61.9741 21.2931 62.1995 20.9666 62.3453 20.5589C62.4945 20.1513 62.5691 19.7022 62.5691 19.2116C62.5691 18.7244 62.4945 18.277 62.3453 17.8693C62.1995 17.4583 61.9741 17.1286 61.6692 16.88C61.3643 16.6314 60.9798 16.5071 60.5158 16.5071C60.0485 16.5071 59.6607 16.6314 59.3525 16.88C59.0475 17.1286 58.8205 17.4583 58.6713 17.8693C58.5255 18.277 58.4526 18.7244 58.4526 19.2116C58.4526 19.7022 58.5255 20.1513 58.6713 20.5589C58.8205 20.9666 59.0475 21.2931 59.3525 21.5384C59.6607 21.7836 60.0485 21.9062 60.5158 21.9062ZM67.2163 12.8182V23H65.7298V12.8182H67.2163ZM70.7026 12.8182V23H69.2161V12.8182H70.7026ZM75.9936 23.1541C75.2412 23.1541 74.5933 22.9934 74.0497 22.6719C73.5095 22.3471 73.0919 21.8913 72.7969 21.3047C72.5052 20.7147 72.3594 20.0237 72.3594 19.2315C72.3594 18.4493 72.5052 17.7599 72.7969 17.1634C73.0919 16.5668 73.5028 16.1011 74.0298 15.7663C74.5601 15.4316 75.1799 15.2642 75.8892 15.2642C76.3201 15.2642 76.7377 15.3355 77.142 15.478C77.5464 15.6205 77.9093 15.8442 78.2308 16.1491C78.5523 16.4541 78.8059 16.8501 78.9915 17.3374C79.1771 17.8213 79.2699 18.4096 79.2699 19.1023V19.6293H73.1996V18.5156H77.8132C77.8132 18.1245 77.7337 17.7782 77.5746 17.4766C77.4155 17.1716 77.1918 16.9313 76.9034 16.7557C76.6184 16.58 76.2836 16.4922 75.8991 16.4922C75.4815 16.4922 75.117 16.5949 74.8054 16.8004C74.4972 17.0026 74.2585 17.2678 74.0895 17.5959C73.9238 17.9207 73.8409 18.2737 73.8409 18.6548V19.5249C73.8409 20.0353 73.9304 20.4695 74.1094 20.8274C74.2917 21.1854 74.5452 21.4588 74.87 21.6477C75.1948 21.8333 75.5743 21.9261 76.0085 21.9261C76.2902 21.9261 76.5471 21.8864 76.7791 21.8068C77.0111 21.724 77.2116 21.6013 77.3807 21.4389C77.5497 21.2765 77.679 21.076 77.7685 20.8374L79.1754 21.0909C79.0627 21.5052 78.8606 21.8681 78.5689 22.1797C78.2805 22.4879 77.9176 22.7282 77.4801 22.9006C77.0459 23.0696 76.5504 23.1541 75.9936 23.1541ZM84.1358 23.1541C83.3967 23.1541 82.7604 22.9867 82.2267 22.652C81.6964 22.3139 81.2888 21.8482 81.0037 21.255C80.7187 20.6617 80.5762 19.9822 80.5762 19.2166C80.5762 18.4411 80.722 17.7566 81.0137 17.1634C81.3053 16.5668 81.7163 16.1011 82.2466 15.7663C82.7769 15.4316 83.4017 15.2642 84.1209 15.2642C84.7009 15.2642 85.218 15.3719 85.6721 15.5874C86.1261 15.7995 86.4924 16.0978 86.7708 16.4822C87.0525 16.8667 87.2199 17.3158 87.2729 17.8295H85.8262C85.7466 17.4716 85.5643 17.1634 85.2793 16.9048C84.9976 16.6463 84.6197 16.517 84.1458 16.517C83.7315 16.517 83.3685 16.6264 83.057 16.8452C82.7488 17.0606 82.5085 17.3688 82.3361 17.7699C82.1638 18.1676 82.0776 18.6383 82.0776 19.1818C82.0776 19.7386 82.1621 20.2192 82.3311 20.6236C82.5002 21.0279 82.7388 21.3411 83.0471 21.5632C83.3586 21.7853 83.7248 21.8963 84.1458 21.8963C84.4275 21.8963 84.6827 21.8449 84.9114 21.7422C85.1434 21.6361 85.3373 21.4853 85.4931 21.2898C85.6522 21.0942 85.7632 20.8589 85.8262 20.5838H87.2729C87.2199 21.0777 87.0591 21.5185 86.7907 21.9062C86.5222 22.294 86.1626 22.599 85.7118 22.821C85.2644 23.0431 84.7391 23.1541 84.1358 23.1541ZM92.4272 15.3636V16.5568H88.256V15.3636H92.4272ZM89.3746 13.5341H90.8612V20.7578C90.8612 21.0462 90.9042 21.2633 90.9904 21.4091C91.0766 21.5516 91.1876 21.6494 91.3235 21.7024C91.4627 21.7521 91.6135 21.777 91.7759 21.777C91.8952 21.777 91.9996 21.7687 92.0891 21.7521C92.1786 21.7356 92.2482 21.7223 92.2979 21.7124L92.5664 22.9403C92.4802 22.9735 92.3576 23.0066 92.1985 23.0398C92.0394 23.0762 91.8406 23.0961 91.6019 23.0994C91.2108 23.1061 90.8462 23.0365 90.5082 22.8906C90.1701 22.7448 89.8967 22.5194 89.6879 22.2145C89.479 21.9096 89.3746 21.5268 89.3746 21.0661V13.5341ZM94.0716 23V15.3636H95.5581V23H94.0716ZM94.8223 14.1854C94.5637 14.1854 94.3417 14.0992 94.1561 13.9268C93.9738 13.7512 93.8826 13.5424 93.8826 13.3004C93.8826 13.0552 93.9738 12.8464 94.1561 12.674C94.3417 12.4983 94.5637 12.4105 94.8223 12.4105C95.0808 12.4105 95.3012 12.4983 95.4835 12.674C95.6691 12.8464 95.7619 13.0552 95.7619 13.3004C95.7619 13.5424 95.6691 13.7512 95.4835 13.9268C95.3012 14.0992 95.0808 14.1854 94.8223 14.1854ZM100.775 23.1541C100.059 23.1541 99.4338 22.9901 98.9002 22.6619C98.3666 22.3338 97.9523 21.8748 97.6573 21.2848C97.3623 20.6948 97.2148 20.0054 97.2148 19.2166C97.2148 18.4245 97.3623 17.7318 97.6573 17.1385C97.9523 16.5452 98.3666 16.0845 98.9002 15.7564C99.4338 15.4283 100.059 15.2642 100.775 15.2642C101.49 15.2642 102.115 15.4283 102.649 15.7564C103.182 16.0845 103.597 16.5452 103.892 17.1385C104.187 17.7318 104.334 18.4245 104.334 19.2166C104.334 20.0054 104.187 20.6948 103.892 21.2848C103.597 21.8748 103.182 22.3338 102.649 22.6619C102.115 22.9901 101.49 23.1541 100.775 23.1541ZM100.779 21.9062C101.243 21.9062 101.628 21.7836 101.933 21.5384C102.238 21.2931 102.463 20.9666 102.609 20.5589C102.758 20.1513 102.833 19.7022 102.833 19.2116C102.833 18.7244 102.758 18.277 102.609 17.8693C102.463 17.4583 102.238 17.1286 101.933 16.88C101.628 16.6314 101.243 16.5071 100.779 16.5071C100.312 16.5071 99.9244 16.6314 99.6161 16.88C99.3112 17.1286 99.0842 17.4583 98.935 17.8693C98.7892 18.277 98.7163 18.7244 98.7163 19.2116C98.7163 19.7022 98.7892 20.1513 98.935 20.5589C99.0842 20.9666 99.3112 21.2931 99.6161 21.5384C99.9244 21.7836 100.312 21.9062 100.779 21.9062ZM107.48 18.4659V23H105.993V15.3636H107.42V16.6065H107.515C107.69 16.2022 107.965 15.8774 108.34 15.6321C108.718 15.3868 109.193 15.2642 109.767 15.2642C110.287 15.2642 110.743 15.3736 111.134 15.5923C111.525 15.8078 111.828 16.1293 112.044 16.5568C112.259 16.9844 112.367 17.513 112.367 18.1428V23H110.881V18.3217C110.881 17.7682 110.736 17.3357 110.448 17.0241C110.16 16.7093 109.764 16.5518 109.26 16.5518C108.915 16.5518 108.608 16.6264 108.34 16.7756C108.075 16.9247 107.864 17.1435 107.709 17.4318C107.556 17.7169 107.48 18.0616 107.48 18.4659ZM120.083 17.228L118.736 17.4666C118.679 17.2943 118.59 17.1302 118.467 16.9744C118.348 16.8187 118.185 16.6911 117.98 16.5916C117.774 16.4922 117.518 16.4425 117.209 16.4425C116.788 16.4425 116.437 16.5369 116.155 16.7259C115.874 16.9115 115.733 17.1518 115.733 17.4467C115.733 17.7019 115.827 17.9074 116.016 18.0632C116.205 18.219 116.51 18.3466 116.931 18.446L118.144 18.7244C118.847 18.8868 119.37 19.1371 119.715 19.4751C120.06 19.8132 120.232 20.2524 120.232 20.7926C120.232 21.25 120.099 21.6577 119.834 22.0156C119.573 22.3703 119.206 22.6487 118.736 22.8509C118.268 23.053 117.726 23.1541 117.11 23.1541C116.255 23.1541 115.557 22.9718 115.017 22.6072C114.477 22.2393 114.145 21.7173 114.023 21.0412L115.459 20.8224C115.549 21.197 115.733 21.4804 116.011 21.6726C116.29 21.8615 116.653 21.956 117.1 21.956C117.587 21.956 117.977 21.8549 118.268 21.6527C118.56 21.4472 118.706 21.197 118.706 20.902C118.706 20.6634 118.616 20.4628 118.437 20.3004C118.262 20.138 117.992 20.0154 117.627 19.9325L116.334 19.6491C115.622 19.4867 115.095 19.2282 114.753 18.8736C114.415 18.5189 114.246 18.0698 114.246 17.5263C114.246 17.0755 114.372 16.6811 114.624 16.343C114.876 16.005 115.224 15.7415 115.668 15.5526C116.112 15.3603 116.621 15.2642 117.194 15.2642C118.02 15.2642 118.669 15.4432 119.143 15.8011C119.617 16.1558 119.93 16.6314 120.083 17.228Z" fill="#2E5C7C"/>
</svg>
